<svg width="23" height="25" viewBox="0 0 23 25" fill="none" xmlns="http://www.w3.org/2000/svg">
<path fill-rule="evenodd" clip-rule="evenodd" d="M0.445533 0.371379C0.163039 0.663792 0.000671387 1.11385 0.000671387 1.69868V22.5007C0.000671387 23.0855 0.163039 23.5356 0.456093 23.8178L0.532657 23.8801L12.635 12.2243V11.9624L0.522096 0.309082L0.445533 0.371379Z" fill="url(#paint0_linear_8873_44639)"/>
<path fill-rule="evenodd" clip-rule="evenodd" d="M16.6616 16.1259L12.6249 12.2369V11.9648L16.6629 8.07568L16.7501 8.12781L21.526 10.7417C22.8936 11.4842 22.8936 12.7073 21.526 13.4599L16.7501 16.0738C16.7487 16.0738 16.6616 16.1259 16.6616 16.1259Z" fill="url(#paint1_linear_8873_44639)"/>
<path fill-rule="evenodd" clip-rule="evenodd" d="M16.7489 16.0731L12.625 12.1001L0.446075 23.8296C0.890937 24.2899 1.63941 24.342 2.47633 23.8919L16.7489 16.0731Z" fill="url(#paint2_linear_8873_44639)"/>
<path fill-rule="evenodd" clip-rule="evenodd" d="M16.7489 8.12723L2.47636 0.318532C1.64076 -0.141701 0.890967 -0.0794039 0.446106 0.380829L12.6237 12.099L16.7489 8.12723Z" fill="url(#paint3_linear_8873_44639)"/>
<path opacity="0.2" fill-rule="evenodd" clip-rule="evenodd" d="M16.6617 15.9883L2.48686 23.7449C1.69482 24.1835 0.988589 24.153 0.533168 23.7551L0.456604 23.8288L0.533168 23.8911C0.988589 24.2878 1.69482 24.3196 2.48686 23.881L16.7594 16.0722L16.6617 15.9883Z" fill="#1A1A1A"/>
<path opacity="0.12" fill-rule="evenodd" clip-rule="evenodd" d="M21.5244 13.3232L16.6507 15.9892L16.7378 16.0731L21.5138 13.4592C22.1976 13.0829 22.5342 12.5921 22.5342 12.1001C22.4907 12.5502 22.1435 12.9786 21.5244 13.3232Z" fill="#1A1A1A"/>
<path opacity="0.25" fill-rule="evenodd" clip-rule="evenodd" d="M2.47512 0.455042L21.5236 10.8777C22.1427 11.212 22.4899 11.6507 22.544 12.1007C22.544 11.61 22.2074 11.118 21.5236 10.7416L2.47512 0.319007C1.10753 -0.43364 0 0.193142 0 1.69843V1.83447C0 0.329177 1.10753 -0.287433 2.47512 0.455042Z" fill="white"/>
<defs>
<linearGradient id="paint0_linear_8873_44639" x1="11.5483" y1="1.47508" x2="-7.73777" y2="6.81071" gradientUnits="userSpaceOnUse">
<stop stop-color="#00A0FF"/>
<stop offset="0.007" stop-color="#00A1FF"/>
<stop offset="0.26" stop-color="#00BEFF"/>
<stop offset="0.512" stop-color="#00D2FF"/>
<stop offset="0.76" stop-color="#00DFFF"/>
<stop offset="1" stop-color="#00E3FF"/>
</linearGradient>
<linearGradient id="paint1_linear_8873_44639" x1="23.3056" y1="12.1014" x2="-0.331236" y2="12.1014" gradientUnits="userSpaceOnUse">
<stop stop-color="#FFE000"/>
<stop offset="0.409" stop-color="#FFBD00"/>
<stop offset="0.775" stop-color="#FFA500"/>
<stop offset="1" stop-color="#FF9C00"/>
</linearGradient>
<linearGradient id="paint2_linear_8873_44639" x1="14.5064" y1="14.2614" x2="-0.207452" y2="39.9745" gradientUnits="userSpaceOnUse">
<stop stop-color="#FF3A44"/>
<stop offset="1" stop-color="#C31162"/>
</linearGradient>
<linearGradient id="paint3_linear_8873_44639" x1="-2.61962" y1="-6.54911" x2="3.9445" y2="4.93442" gradientUnits="userSpaceOnUse">
<stop stop-color="#32A071"/>
<stop offset="0.069" stop-color="#2DA771"/>
<stop offset="0.476" stop-color="#15CF74"/>
<stop offset="0.801" stop-color="#06E775"/>
<stop offset="1" stop-color="#00F076"/>
</linearGradient>
</defs>
</svg>
