<svg width="24" height="23" viewBox="0 0 24 23" fill="none" xmlns="http://www.w3.org/2000/svg">
<path d="M0.299405 7.34021H5.35945V22.5675H0.299405V7.34021ZM2.8633 0C1.13146 0 0 1.13697 0 2.62927C0 4.09088 1.09834 5.2609 2.79707 5.2609H2.82934C4.59429 5.2609 5.69343 4.09083 5.69343 2.62927C5.66031 1.13697 4.59435 0 2.8633 0ZM17.7833 6.98251C15.0973 6.98251 13.894 8.45986 13.2227 9.49592V7.34021H8.16119C8.2282 8.76871 8.16119 22.5675 8.16119 22.5675H13.2227V14.0635C13.2227 13.6081 13.2559 13.1543 13.389 12.828C13.7555 11.9188 14.5883 10.9772 15.9852 10.9772C17.8179 10.9772 18.5499 12.3742 18.5499 14.4203V22.5674H23.6106V13.8358C23.6106 9.15874 21.1145 6.98251 17.7833 6.98251Z" fill="white"/>
</svg>
