<?xml version="1.0" encoding="UTF-8"?>
<!DOCTYPE svg PUBLIC "-//W3C//DTD SVG 1.1//EN" "http://www.w3.org/Graphics/SVG/1.1/DTD/svg11.dtd">
<!-- Creator: CorelDRAW -->
<svg xmlns="http://www.w3.org/2000/svg" xml:space="preserve" width="9.41403in" height="1.57921in" version="1.1" style="shape-rendering:geometricPrecision; text-rendering:geometricPrecision; image-rendering:optimizeQuality; fill-rule:evenodd; clip-rule:evenodd"
viewBox="0 0 8077.99 1355.09"
 xmlns:xlink="http://www.w3.org/1999/xlink"
 xmlns:xodm="http://www.corel.com/coreldraw/odm/2003">
 <defs>
  <style type="text/css">
   <![CDATA[
    .fil0 {fill:#0F75BD;fill-rule:nonzero}
    .fil1 {fill:#FCC317;fill-rule:nonzero}
   ]]>
  </style>
 </defs>
 <g id="Layer_x0020_1">
  <metadata id="CorelCorpID_0Corel-Layer"/>
  <g id="_1389342167136">
   <path class="fil0" d="M-0 1329.63l79.31 -137.73 494.12 -932.11 52.55 -104.11c15.34,-30.68 36.55,-74.74 63.96,-132.18 112.27,1.31 194.19,1.96 245.76,1.96 89.75,0 172.97,-0.65 249.67,-1.96l139.36 399.15 284.27 767.3 55.48 139.68c-110.31,-1.31 -177.21,-1.96 -200.72,-1.96 -53.53,0 -132.51,0.65 -236.29,1.96 -28.07,-105.42 -68.54,-229.44 -121.74,-372.07l-481.4 0c-55.16,112.6 -112.27,236.62 -171.35,372.07 -118.8,-1.31 -191.58,-1.96 -218.34,-1.96 -48.63,0 -126.63,0.65 -234.66,1.96zm739.88 -650.13l297 0c-74.09,-224.87 -114.55,-348.89 -121.74,-371.74 -41.78,93.67 -77.35,170.36 -106.73,230.42l-68.54 141.32zm901.47 650.13c18.61,-144.91 32.64,-304.83 42.43,-480.09 9.79,-174.94 16,-340.74 17.62,-497.06 76.7,1.3 142.95,1.96 198.43,1.96 64.62,0 126.64,-0.66 186.03,-1.96l-8.49 130.22c20.89,-23.5 38.84,-42.1 54.18,-55.48 15.34,-13.72 34.26,-27.1 56.78,-39.82 22.85,-13.06 46.67,-23.5 72.13,-31.99 25.46,-8.16 53.2,-14.69 83.55,-19.26 30.35,-4.9 62.01,-7.18 94.97,-7.18 45.69,0 90.41,4.9 134.14,14.69 43.4,9.79 79.96,23.82 109.33,42.1 29.05,17.95 53.53,40.47 73.43,67.56 19.59,27.09 32.64,56.14 39.17,87.14 6.2,31.01 9.47,63.32 9.47,96.28 0,24.15 -2.61,76.7 -7.83,156.98l-16 346.29c-3.26,68.54 -4.89,131.53 -4.89,189.62 -64.62,-1.31 -124.67,-1.96 -180.81,-1.96 -76.05,0 -145.24,0.65 -207.57,1.96 5.88,-58.09 12.4,-144.26 18.93,-258.81 6.53,-114.56 10.12,-195.18 10.12,-241.84 0,-71.81 -14.04,-121.74 -41.78,-150.13 -27.75,-28.39 -62.99,-42.42 -105.09,-42.42 -37.21,0 -72.13,12.07 -105.09,36.23 -32.96,24.48 -58.1,59.4 -76.05,105.74 -17.95,46.35 -30.68,122.39 -37.86,228.14 -7.51,105.74 -12.4,213.45 -15.01,323.1 -63.64,-1.31 -125.98,-1.96 -186.68,-1.96 -63.65,0 -132.83,0.65 -207.57,1.96zm2314.33 0c-68.21,-1.31 -125.01,-1.96 -170.37,-1.96 -51.24,0 -113.25,0.65 -186.03,1.96l5.55 -120.76c-24.81,24.15 -46.67,43.74 -64.95,58.75 -18.6,15.01 -42.42,29.37 -71.47,43.4 -29.05,14.04 -60.06,24.8 -93.67,32.63 -33.29,7.51 -67.89,11.43 -103.79,11.43 -61.03,0 -118.47,-11.09 -171.66,-33.61 -53.2,-22.2 -98.57,-53.85 -136.1,-94.97 -37.53,-41.13 -65.6,-90.08 -84.2,-146.22 -18.6,-56.46 -27.74,-115.21 -27.74,-175.58 0,-86.17 16.97,-170.37 50.91,-252.61 33.62,-82.25 78,-146.87 132.51,-193.86 54.83,-47.33 116.52,-80.61 185.05,-100.2 68.53,-19.26 142.94,-29.05 222.9,-29.05 52.87,0 114.88,4.57 185.7,13.71 4.9,-76.04 7.84,-182.44 9.47,-319.19 78.33,1.31 142.3,1.96 191.91,1.96 64.3,0 128.91,-0.65 194.52,-1.96 -17.96,189.29 -33.94,420.7 -47.65,693.87 -13.71,272.84 -20.89,477.15 -20.89,612.27zm-340.4 -738.25c-33.94,-7.84 -65.93,-11.76 -95.96,-11.76 -62.33,0 -115.21,12.08 -158.62,35.9 -43.4,23.83 -77.02,61.03 -100.52,111.95 -23.17,50.59 -34.92,100.52 -34.92,149.48 0,37.21 6.52,70.49 19.58,99.86 13.38,29.71 33.29,53.2 60.71,70.5 27.09,17.3 57.44,25.79 90.73,25.79 35.25,0 67.23,-9.79 96.61,-29.7 29.05,-19.58 52.54,-48.63 70.82,-86.81 18.27,-38.19 31,-83.88 37.53,-136.43 6.85,-52.54 11.42,-128.91 14.04,-228.78zm506.56 -360.32c3.92,-75.72 5.87,-135.44 5.87,-179.5 0,-12.73 -0.32,-30.03 -0.98,-51.57 77.03,1.31 141.32,1.96 193.54,1.96 71.79,0 134.79,-0.65 188.97,-1.96 -1.96,19.58 -3.26,36.23 -3.92,49.61l-5.55 118.47c-1.31,17.62 -1.96,38.83 -1.96,62.99 -62.99,-1.31 -123.37,-1.96 -181.46,-1.96 -59.73,0 -124.68,0.65 -194.52,1.96zm-60.7 1098.56c8.81,-78 15.34,-141.97 19.58,-192.23 4.57,-50.59 8.81,-114.88 12.73,-193.54 4.24,-78.33 7.83,-165.14 10.77,-260.12 3.26,-95.3 5.87,-205.61 7.5,-331.26 82.9,1.3 149.16,1.96 198.77,1.96 45.36,0 110.31,-0.66 195.17,-1.96 -10.45,120.43 -17.95,226.5 -22.2,317.88 -4.57,91.06 -7.51,187.66 -8.81,289.82 -2.28,181.13 -3.58,304.5 -3.58,369.45 -76.04,-1.31 -141.32,-1.96 -196.48,-1.96 -54.18,0 -125.33,0.65 -213.45,1.96zm503.63 0c18.61,-144.91 32.64,-304.83 42.43,-480.09 9.79,-174.94 16,-340.74 17.62,-497.06 76.7,1.3 142.95,1.96 198.44,1.96 64.62,0 126.63,-0.66 186.03,-1.96l-8.49 130.22c20.89,-23.5 38.84,-42.1 54.18,-55.48 15.34,-13.72 34.26,-27.1 56.79,-39.82 22.85,-13.06 46.67,-23.5 72.13,-31.99 25.46,-8.16 53.2,-14.69 83.55,-19.26 30.35,-4.9 62.01,-7.18 94.97,-7.18 45.69,0 90.41,4.9 134.14,14.69 43.4,9.79 79.96,23.82 109.33,42.1 29.05,17.95 53.53,40.47 73.43,67.56 19.59,27.09 32.64,56.14 39.17,87.14 6.2,31.01 9.47,63.32 9.47,96.28 0,24.15 -2.61,76.7 -7.83,156.98l-16 346.29c-3.26,68.54 -4.89,131.53 -4.89,189.62 -64.62,-1.31 -124.67,-1.96 -180.81,-1.96 -76.05,0 -145.24,0.65 -207.57,1.96 5.88,-58.09 12.4,-144.26 18.93,-258.81 6.53,-114.56 10.12,-195.18 10.12,-241.84 0,-71.81 -14.04,-121.74 -41.78,-150.13 -27.74,-28.39 -62.99,-42.42 -105.09,-42.42 -37.21,0 -72.13,12.07 -105.09,36.23 -32.96,24.48 -58.1,59.4 -76.04,105.74 -17.95,46.35 -30.68,122.39 -37.86,228.14 -7.51,105.74 -12.4,213.45 -15.01,323.1 -63.64,-1.31 -125.98,-1.96 -186.68,-1.96 -63.65,0 -132.84,0.65 -207.57,1.96z"/>
   <path class="fil1" d="M6334.57 328.98c10.36,0 20.67,0.21 30.91,0.62 -50.1,130.66 -133.02,228.77 -248.68,293.99 -104.56,59.2 -222.5,81.53 -353.89,67.46 3.68,-11.8 7.77,-23.48 12.26,-35.04 24.48,-62.99 63.32,-119.77 116.83,-170.04 53.21,-50.59 119.14,-89.1 197.46,-116.18 78.66,-27.1 160.25,-40.8 245.11,-40.8zm130.85 11.48c33.11,5.94 65.64,14.19 97.59,24.75 73.11,24.48 134.8,59.07 185.05,104.77 50.6,45.69 87.79,98.89 111.63,159.92 23.82,60.71 35.89,126.31 35.89,196.48 0,28.82 -1.92,56.98 -5.74,84.56 -128.95,-36.73 -230.53,-101.92 -305.08,-196.11 -83.31,-104.08 -123,-228.97 -119.35,-374.37zm406.95 652.75c-2.7,9.29 -5.61,18.51 -8.77,27.67 -21.55,61.37 -57.76,119.13 -108.68,172.98 -51.24,53.85 -116.19,94.32 -194.83,121.08 -78.65,26.76 -162.21,40.14 -250.33,40.14 -13.81,0 -27.54,-0.34 -41.19,-1.03 50.11,-130.4 132.95,-228.26 248.58,-293.86 104.3,-58.75 222.76,-81.23 355.23,-66.99zm-702.79 349.59c-31.69,-5.68 -62.87,-13.33 -93.5,-22.96 -74.41,-23.83 -137.08,-58.1 -187.01,-103.46 -50.26,-45.37 -87.79,-99.54 -112.92,-162.53 -25.13,-62.99 -37.85,-129.57 -37.85,-198.76 0,-27.8 1.98,-55.13 5.92,-81.95 160.97,45.61 278.94,135.52 353.91,269.51 51.03,90.12 74.83,190.25 71.45,300.15z"/>
   <path class="fil0" d="M6916.76 1329.63c10.44,-94.98 17.62,-173.31 22.2,-234.34 9.13,-128.26 18.6,-277.41 28.06,-447.13 5.87,-112.26 10.45,-219.97 13.06,-323.1 2.94,-103.46 4.57,-203.98 4.57,-301.57 80.61,1.31 146.53,1.96 197.45,1.96 68.86,0 133.81,-0.65 194.84,-1.96l-20.24 231.73c-3.26,38.18 -8.48,115.86 -15.34,232.37 20.89,-26.76 38.19,-46.67 51.57,-59.72 13.38,-13.06 28.07,-25.13 44.39,-36.23 16.32,-11.1 32.64,-20.56 49.61,-28.39 16.97,-7.51 36.23,-14.35 58.42,-19.9 21.86,-5.87 46.02,-10.45 72.45,-13.38 26.44,-3.27 53.85,-4.9 81.92,-4.9 54.17,0 106.4,6.2 156.98,18.28 50.58,12.07 93.99,33.29 129.57,63.64 35.57,30.03 59.72,63.97 72.45,101.18 12.73,37.54 19.26,78.33 19.26,123.04 0,17.3 -0.32,40.14 -1.31,68.54 -0.98,28.39 -2.93,64.3 -5.87,107.37l-20.24 322.46c-2.61,40.14 -3.92,73.76 -4.24,100.2 -0.32,26.44 -0.65,59.72 -0.65,99.87 -66.26,-1.31 -129.9,-1.96 -190.6,-1.96 -68.21,0 -137.73,0.65 -207.9,1.96 10.77,-84.85 20.56,-182.44 28.72,-293.41 8.49,-110.63 12.73,-192.89 12.73,-247.06 0,-60.05 -12.73,-102.15 -37.86,-126.31 -25.13,-24.15 -58.41,-36.23 -99.86,-36.23 -36.88,0 -69.51,7.51 -98.24,22.84 -25.46,13.38 -47.65,34.27 -66.91,62.34 -16.32,23.5 -30.02,57.77 -41.12,102.15 -12.73,54.17 -22.52,134.46 -29.37,240.21 -4.25,58.75 -8.17,150.46 -12.08,275.45 -64.62,-1.31 -124.67,-1.96 -180.8,-1.96 -56.79,0 -125.33,0.65 -205.61,1.96z"/>
  </g>
 </g>
</svg>
