<?xml version="1.0" encoding="UTF-8"?>
<!DOCTYPE svg PUBLIC "-//W3C//DTD SVG 1.1//EN" "http://www.w3.org/Graphics/SVG/1.1/DTD/svg11.dtd">
<!-- Creator: CorelDRAW -->
<svg xmlns="http://www.w3.org/2000/svg" xml:space="preserve" width="9.41403in" height="1.57921in" version="1.1" style="shape-rendering:geometricPrecision; text-rendering:geometricPrecision; image-rendering:optimizeQuality; fill-rule:evenodd; clip-rule:evenodd"
viewBox="0 0 2656.54 445.64"
 xmlns:xlink="http://www.w3.org/1999/xlink"
 xmlns:xodm="http://www.corel.com/coreldraw/odm/2003">
 <defs>
  <style type="text/css">
   <![CDATA[
    .fil0 {fill:black;fill-rule:nonzero}
   ]]>
  </style>
 </defs>
 <g id="Layer_x0020_1">
  <metadata id="CorelCorpID_0Corel-Layer"/>
  <g id="_1389636301216">
   <path class="fil0" d="M-0 437.26l26.08 -45.29 162.5 -306.54 17.28 -34.24c5.04,-10.09 12.02,-24.58 21.04,-43.47 36.92,0.43 63.86,0.64 80.82,0.64 29.52,0 56.88,-0.21 82.11,-0.64l45.83 131.27 93.48 252.34 18.25 45.94c-36.28,-0.43 -58.28,-0.64 -66.01,-0.64 -17.6,0 -43.58,0.21 -77.71,0.64 -9.23,-34.67 -22.54,-75.45 -40.03,-122.36l-158.31 0c-18.14,37.03 -36.92,77.82 -56.35,122.36 -39.07,-0.43 -63,-0.64 -71.8,-0.64 -15.99,0 -41.64,0.21 -77.17,0.64zm243.32 -213.8l97.67 0c-24.36,-73.95 -37.67,-114.74 -40.03,-122.25 -13.74,30.8 -25.44,56.03 -35.1,75.78l-22.54 46.47zm296.46 213.8c6.12,-47.66 10.73,-100.25 13.95,-157.88 3.22,-57.53 5.26,-112.05 5.8,-163.46 25.22,0.43 47.01,0.64 65.26,0.64 21.25,0 41.65,-0.22 61.18,-0.64l-2.79 42.82c6.87,-7.73 12.77,-13.85 17.82,-18.25 5.04,-4.51 11.27,-8.91 18.67,-13.1 7.51,-4.29 15.35,-7.73 23.72,-10.52 8.37,-2.68 17.5,-4.83 27.48,-6.33 9.98,-1.61 20.39,-2.36 31.23,-2.36 15.03,0 29.73,1.61 44.11,4.83 14.27,3.22 26.3,7.83 35.95,13.85 9.55,5.9 17.6,13.31 24.15,22.22 6.44,8.91 10.73,18.46 12.88,28.66 2.04,10.2 3.11,20.82 3.11,31.66 0,7.94 -0.86,25.22 -2.58,51.63l-5.26 113.88c-1.07,22.54 -1.61,43.25 -1.61,62.36 -21.25,-0.43 -41,-0.64 -59.46,-0.64 -25.01,0 -47.76,0.21 -68.26,0.64 1.93,-19.1 4.08,-47.44 6.22,-85.11 2.15,-37.67 3.33,-64.19 3.33,-79.53 0,-23.61 -4.62,-40.03 -13.74,-49.37 -9.12,-9.34 -20.72,-13.95 -34.56,-13.95 -12.24,0 -23.72,3.97 -34.56,11.91 -10.84,8.05 -19.11,19.53 -25.01,34.77 -5.9,15.24 -10.09,40.25 -12.45,75.03 -2.47,34.77 -4.08,70.19 -4.94,106.26 -20.93,-0.43 -41.43,-0.64 -61.39,-0.64 -20.93,0 -43.68,0.21 -68.26,0.64zm761.1 0c-22.43,-0.43 -41.11,-0.64 -56.03,-0.64 -16.85,0 -37.24,0.21 -61.18,0.64l1.83 -39.71c-8.16,7.94 -15.35,14.38 -21.36,19.32 -6.12,4.93 -13.95,9.66 -23.5,14.27 -9.55,4.62 -19.75,8.16 -30.8,10.73 -10.95,2.47 -22.33,3.76 -34.13,3.76 -20.07,0 -38.96,-3.65 -56.45,-11.05 -17.49,-7.3 -32.42,-17.71 -44.76,-31.23 -12.34,-13.53 -21.57,-29.62 -27.69,-48.09 -6.12,-18.57 -9.12,-37.89 -9.12,-57.74 0,-28.34 5.58,-56.03 16.74,-83.07 11.06,-27.05 25.65,-48.3 43.58,-63.75 18.03,-15.56 38.32,-26.51 60.86,-32.95 22.54,-6.33 47.01,-9.55 73.3,-9.55 17.39,0 37.78,1.5 61.07,4.51 1.61,-25.01 2.58,-60 3.11,-104.97 25.76,0.43 46.8,0.64 63.11,0.64 21.14,0 42.39,-0.21 63.97,-0.64 -5.9,62.25 -11.16,138.35 -15.67,228.19 -4.51,89.73 -6.87,156.92 -6.87,201.35zm-111.95 -242.78c-11.16,-2.58 -21.68,-3.87 -31.56,-3.87 -20.5,0 -37.89,3.97 -52.16,11.81 -14.27,7.84 -25.33,20.07 -33.06,36.81 -7.62,16.64 -11.48,33.06 -11.48,49.16 0,12.24 2.15,23.18 6.44,32.84 4.4,9.77 10.95,17.5 19.96,23.18 8.91,5.69 18.89,8.48 29.84,8.48 11.59,0 22.11,-3.22 31.77,-9.77 9.55,-6.44 17.28,-15.99 23.29,-28.55 6.01,-12.56 10.2,-27.58 12.34,-44.87 2.25,-17.28 3.76,-42.39 4.62,-75.24zm166.59 -118.49c1.29,-24.9 1.93,-44.54 1.93,-59.03 0,-4.19 -0.11,-9.87 -0.32,-16.96 25.33,0.43 46.47,0.64 63.65,0.64 23.61,0 44.33,-0.21 62.14,-0.64 -0.64,6.44 -1.07,11.91 -1.29,16.31l-1.82 38.96c-0.43,5.79 -0.64,12.77 -0.64,20.71 -20.72,-0.43 -40.57,-0.64 -59.68,-0.64 -19.64,0 -41,0.21 -63.97,0.64zm-19.96 361.27c2.9,-25.65 5.04,-46.69 6.44,-63.22 1.5,-16.64 2.9,-37.78 4.19,-63.65 1.39,-25.76 2.58,-54.31 3.54,-85.54 1.07,-31.34 1.93,-67.62 2.47,-108.94 27.26,0.43 49.05,0.64 65.37,0.64 14.92,0 36.28,-0.22 64.18,-0.64 -3.44,39.6 -5.9,74.49 -7.3,104.54 -1.5,29.95 -2.47,61.71 -2.9,95.31 -0.75,59.57 -1.18,100.14 -1.18,121.5 -25.01,-0.43 -46.47,-0.64 -64.61,-0.64 -17.82,0 -41.22,0.21 -70.19,0.64zm165.62 0c6.12,-47.66 10.73,-100.25 13.95,-157.88 3.22,-57.53 5.26,-112.05 5.79,-163.46 25.22,0.43 47.01,0.64 65.26,0.64 21.25,0 41.65,-0.22 61.18,-0.64l-2.79 42.82c6.87,-7.73 12.77,-13.85 17.82,-18.25 5.04,-4.51 11.27,-8.91 18.67,-13.1 7.51,-4.29 15.35,-7.73 23.72,-10.52 8.37,-2.68 17.49,-4.83 27.48,-6.33 9.98,-1.61 20.39,-2.36 31.23,-2.36 15.03,0 29.73,1.61 44.11,4.83 14.27,3.22 26.3,7.83 35.95,13.85 9.55,5.9 17.6,13.31 24.15,22.22 6.44,8.91 10.73,18.46 12.88,28.66 2.04,10.2 3.11,20.82 3.11,31.66 0,7.94 -0.86,25.22 -2.58,51.63l-5.26 113.88c-1.07,22.54 -1.61,43.25 -1.61,62.36 -21.25,-0.43 -41,-0.64 -59.46,-0.64 -25.01,0 -47.76,0.21 -68.26,0.64 1.93,-19.1 4.08,-47.44 6.22,-85.11 2.15,-37.67 3.33,-64.19 3.33,-79.53 0,-23.61 -4.62,-40.03 -13.74,-49.37 -9.12,-9.34 -20.71,-13.95 -34.56,-13.95 -12.24,0 -23.72,3.97 -34.56,11.91 -10.84,8.05 -19.11,19.53 -25.01,34.77 -5.9,15.24 -10.09,40.25 -12.45,75.03 -2.47,34.77 -4.08,70.19 -4.94,106.26 -20.93,-0.43 -41.43,-0.64 -61.39,-0.64 -20.93,0 -43.68,0.21 -68.26,0.64z"/>
   <path class="fil0" d="M2083.2 108.19c3.41,0 6.8,0.07 10.17,0.2 -16.48,42.97 -43.74,75.23 -81.78,96.68 -34.39,19.47 -73.17,26.81 -116.38,22.18 1.21,-3.88 2.56,-7.72 4.03,-11.52 8.05,-20.72 20.82,-39.39 38.42,-55.92 17.5,-16.64 39.18,-29.3 64.94,-38.21 25.87,-8.91 52.7,-13.42 80.61,-13.42zm43.03 3.78c10.89,1.95 21.59,4.67 32.09,8.14 24.04,8.05 44.33,19.43 60.86,34.45 16.64,15.03 28.87,32.52 36.71,52.59 7.83,19.96 11.8,41.54 11.8,64.61 0,9.48 -0.63,18.74 -1.89,27.81 -42.41,-12.08 -75.81,-33.52 -100.33,-64.49 -27.4,-34.23 -40.45,-75.3 -39.25,-123.11zm133.83 214.66c-0.89,3.06 -1.85,6.09 -2.88,9.1 -7.09,20.18 -19,39.18 -35.74,56.89 -16.85,17.71 -38.21,31.02 -64.07,39.82 -25.87,8.8 -53.34,13.2 -82.32,13.2 -4.54,0 -9.06,-0.11 -13.55,-0.34 16.48,-42.88 43.72,-75.07 81.75,-96.64 34.3,-19.32 73.26,-26.71 116.82,-22.03zm-231.12 114.97c-10.42,-1.87 -20.68,-4.38 -30.75,-7.55 -24.47,-7.84 -45.08,-19.11 -61.5,-34.02 -16.53,-14.92 -28.87,-32.74 -37.14,-53.45 -8.26,-20.71 -12.45,-42.61 -12.45,-65.36 0,-9.14 0.65,-18.13 1.95,-26.95 52.94,15 91.73,44.57 116.39,88.63 16.78,29.64 24.61,62.57 23.5,98.71z"/>
   <path class="fil0" d="M2274.66 437.26c3.43,-31.23 5.79,-56.99 7.3,-77.06 3,-42.18 6.12,-91.23 9.23,-147.04 1.93,-36.92 3.44,-72.34 4.29,-106.26 0.97,-34.02 1.5,-67.08 1.5,-99.17 26.51,0.43 48.19,0.64 64.93,0.64 22.65,0 44.01,-0.21 64.08,-0.64l-6.65 76.21c-1.07,12.56 -2.79,38.1 -5.04,76.42 6.87,-8.8 12.56,-15.35 16.96,-19.64 4.4,-4.29 9.23,-8.26 14.6,-11.91 5.37,-3.65 10.74,-6.76 16.31,-9.34 5.58,-2.47 11.91,-4.72 19.21,-6.55 7.19,-1.93 15.13,-3.44 23.83,-4.4 8.69,-1.07 17.71,-1.61 26.94,-1.61 17.82,0 34.99,2.04 51.63,6.01 16.63,3.97 30.91,10.95 42.61,20.93 11.7,9.88 19.64,21.04 23.83,33.27 4.19,12.34 6.33,25.76 6.33,40.46 0,5.69 -0.11,13.2 -0.43,22.54 -0.32,9.34 -0.96,21.14 -1.93,35.31l-6.66 106.04c-0.86,13.2 -1.29,24.26 -1.39,32.95 -0.11,8.69 -0.21,19.64 -0.21,32.84 -21.79,-0.43 -42.72,-0.64 -62.68,-0.64 -22.43,0 -45.29,0.21 -68.37,0.64 3.54,-27.9 6.76,-60 9.45,-96.49 2.79,-36.38 4.19,-63.43 4.19,-81.25 0,-19.75 -4.19,-33.59 -12.45,-41.54 -8.26,-7.94 -19.21,-11.91 -32.84,-11.91 -12.13,0 -22.86,2.47 -32.31,7.51 -8.37,4.4 -15.67,11.27 -22,20.5 -5.37,7.73 -9.87,19 -13.52,33.59 -4.19,17.82 -7.41,44.22 -9.66,79 -1.4,19.32 -2.69,49.48 -3.97,90.59 -21.25,-0.43 -41,-0.64 -59.46,-0.64 -18.68,0 -41.22,0.21 -67.62,0.64z"/>
  </g>
 </g>
</svg>
