<svg width="20" height="25" viewBox="0 0 20 25" fill="none" xmlns="http://www.w3.org/2000/svg">
<path d="M16.527 12.9854C16.4994 9.90058 19.0429 8.39979 19.1592 8.32992C17.7187 6.22136 15.4861 5.93326 14.7015 5.91029C12.8263 5.71216 11.0073 7.03684 10.052 7.03684C9.07773 7.03684 7.60674 5.92943 6.02133 5.96198C3.98119 5.99356 2.07269 7.17945 1.02584 9.02097C-1.13434 12.7758 0.476721 18.2937 2.5465 21.3287C3.58174 22.8161 4.79161 24.4748 6.37502 24.4164C7.9242 24.3533 8.50287 23.4258 10.3724 23.4258C12.2246 23.4258 12.7681 24.4164 14.383 24.3791C16.0457 24.3533 17.0924 22.886 18.0915 21.3862C19.288 19.6834 19.7684 18.0046 19.7875 17.9185C19.7493 17.9051 16.5595 16.6819 16.527 12.9854ZM13.4764 3.91371C14.3095 2.86757 14.8797 1.44431 14.7214 0C13.5154 0.0535994 12.0073 0.837491 11.1387 1.86067C10.3703 2.76228 9.6839 4.2401 9.86122 5.62985C11.216 5.73131 12.6069 4.94359 13.4764 3.91371Z" fill="white"/>
</svg>
